<svg viewBox="0 0 19.04 20" fill="none" xmlns="http://www.w3.org/2000/svg" x="0" y="0"><path id="Vector_7" d="M8.345,20c-0.45,0 -0.8374,-0.15 -1.162,-0.45c-0.3247,-0.3 -0.5207,-0.667 -0.588,-1.1l-0.225,-1.65c-0.2167,-0.083 -0.4207,-0.183 -0.612,-0.3c-0.1914,-0.117 -0.379,-0.242 -0.563,-0.375l-1.55,0.65c-0.4167,0.183 -0.8334,0.2 -1.25,0.05c-0.4167,-0.15 -0.7417,-0.417 -0.975,-0.8l-1.175,-2.05c-0.2334,-0.383 -0.3,-0.792 -0.2,-1.225c0.1,-0.433 0.325,-0.792 0.675,-1.075l1.325,-1c-0.0167,-0.117 -0.025,-0.229 -0.025,-0.338v-0.675c0,-0.108 0.0083,-0.22 0.025,-0.337l-1.325,-1c-0.35,-0.283 -0.575,-0.642 -0.675,-1.075c-0.1,-0.433 -0.0334,-0.842 0.2,-1.225l1.175,-2.05c0.2333,-0.383 0.5583,-0.65 0.975,-0.8c0.4166,-0.15 0.8333,-0.133 1.25,0.05l1.55,0.65c0.1833,-0.133 0.375,-0.258 0.575,-0.375c0.2,-0.117 0.4,-0.217 0.6,-0.3l0.225,-1.65c0.0666,-0.433 0.2626,-0.8 0.588,-1.1c0.3253,-0.3 0.7126,-0.45 1.162,-0.45h2.35c0.45,0 0.8376,0.15 1.163,0.45c0.3253,0.3 0.521,0.667 0.587,1.1l0.225,1.65c0.2166,0.083 0.421,0.183 0.613,0.3c0.192,0.117 0.3793,0.242 0.562,0.375l1.55,-0.65c0.4166,-0.183 0.8333,-0.2 1.25,-0.05c0.4166,0.15 0.7416,0.417 0.975,0.8l1.175,2.05c0.2333,0.383 0.3,0.792 0.2,1.225c-0.1,0.433 -0.325,0.792 -0.675,1.075l-1.325,1c0.0166,0.117 0.025,0.229 0.025,0.338v0.674c0,0.109 -0.0167,0.221 -0.05,0.338l1.325,1c0.35,0.283 0.575,0.642 0.675,1.075c0.1,0.433 0.0333,0.842 -0.2,1.225l-1.2,2.05c-0.2334,0.383 -0.5584,0.65 -0.975,0.8c-0.4167,0.15 -0.8334,0.133 -1.25,-0.05l-1.5,-0.65c-0.1834,0.133 -0.375,0.258 -0.575,0.375c-0.2,0.117 -0.4,0.217 -0.6,0.3l-0.225,1.65c-0.0667,0.433 -0.2624,0.8 -0.587,1.1c-0.3247,0.3 -0.7124,0.45 -1.163,0.45zM9.57,13.5c0.9666,0 1.7916,-0.342 2.475,-1.025c0.6833,-0.683 1.025,-1.508 1.025,-2.475c0,-0.967 -0.3417,-1.792 -1.025,-2.475c-0.6834,-0.683 -1.5084,-1.025 -2.475,-1.025c-0.9834,0 -1.8127,0.342 -2.488,1.025c-0.6754,0.683 -1.0127,1.508 -1.012,2.475c0.0006,0.967 0.3383,1.792 1.013,2.475c0.6746,0.683 1.5036,1.025 2.487,1.025z" fill="currentColor"/></svg>