<svg viewBox="0 0 14.1667 16.6667" fill="none" xmlns="http://www.w3.org/2000/svg" x="0" y="0"><path id="Vector_4" d="M3.3333,0.0004c0.221,0 0.433,0.087 0.5892,0.244c0.1563,0.156 0.2441,0.368 0.2441,0.589v1.667c0.6631,0 1.2989,0.263 1.7678,0.732c0.4688,0.469 0.7322,1.105 0.7322,1.768v5c0,0.663 -0.2634,1.299 -0.7322,1.767c-0.4689,0.469 -1.1047,0.733 -1.7678,0.733v3.333c0,0.221 -0.0878,0.433 -0.2441,0.589c-0.1562,0.156 -0.3682,0.244 -0.5892,0.244c-0.221,0 -0.433,-0.088 -0.5893,-0.244c-0.1563,-0.156 -0.244,-0.368 -0.244,-0.589v-3.333c-0.6631,0 -1.299,-0.264 -1.7678,-0.733c-0.4689,-0.468 -0.7322,-1.104 -0.7322,-1.767v-5c0,-0.663 0.2633,-1.299 0.7322,-1.768c0.4688,-0.469 1.1047,-0.732 1.7678,-0.732v-1.667c0,-0.221 0.0877,-0.433 0.244,-0.589c0.1563,-0.157 0.3683,-0.244 0.5893,-0.244zM10.8333,0.0004c0.2041,0 0.4011,0.075 0.5536,0.21c0.1526,0.136 0.25,0.323 0.2739,0.525l0.0058,0.098v3.333c0.6377,0 1.2513,0.244 1.7152,0.681c0.464,0.438 0.7432,1.036 0.7807,1.673l0.0041,0.146v5c0.0001,0.638 -0.2436,1.252 -0.6811,1.716c-0.4374,0.463 -1.0356,0.743 -1.6722,0.78l-0.1467,0.004v1.667c-0.0002,0.212 -0.0815,0.417 -0.2274,0.571c-0.1458,0.155 -0.345,0.247 -0.5571,0.26c-0.212,0.012 -0.4208,-0.057 -0.5837,-0.193c-0.1629,-0.136 -0.2675,-0.33 -0.2926,-0.541l-0.0058,-0.097v-1.667c-0.6377,0 -1.2513,-0.243 -1.7153,-0.681c-0.4639,-0.437 -0.7432,-1.035 -0.7806,-1.672l-0.0041,-0.147v-5c-0.0001,-0.637 0.2436,-1.251 0.681,-1.715c0.4375,-0.464 1.0357,-0.743 1.6723,-0.781l0.1467,-0.004v-3.333c0,-0.221 0.0877,-0.433 0.244,-0.589c0.1563,-0.157 0.3683,-0.244 0.5893,-0.244z" fill="currentColor"/></svg>