<svg viewBox="0 0 16.6668 16.6668" fill="none" xmlns="http://www.w3.org/2000/svg" x="0" y="0"><path id="Vector_6" d="M7.298,2.2975l-0.5292,0.529c-0.332,0.332 -0.5186,0.783 -0.5186,1.252c0,0.47 0.1866,0.92 0.5186,1.252l4.5667,4.567c0.3321,0.332 0.7825,0.519 1.2521,0.519c0.4696,0 0.92,-0.187 1.2521,-0.519l0.5291,-0.529c1.8284,-1.828 1.9446,-4.72 0.3496,-6.683l1.7958,-1.796c0.0484,-0.049 0.0868,-0.106 0.113,-0.169c0.0261,-0.063 0.0396,-0.131 0.0396,-0.2c0,-0.068 -0.0135,-0.136 -0.0396,-0.199c-0.0262,-0.063 -0.0646,-0.121 -0.113,-0.169c-0.0483,-0.048 -0.1058,-0.087 -0.169,-0.113c-0.0632,-0.026 -0.1309,-0.039 -0.1993,-0.039c-0.0684,0 -0.1361,0.013 -0.1993,0.039c-0.0632,0.026 -0.1207,0.065 -0.169,0.113l-1.7959,1.796c-1.9637,-1.596 -4.8558,-1.479 -6.6837,0.349zM9.898,13.8395l-0.5292,0.529c-1.8279,1.829 -4.72,1.945 -6.6833,0.35l-1.7963,1.796c-0.0976,0.097 -0.2301,0.152 -0.3683,0.152c-0.1381,0 -0.2706,-0.055 -0.3683,-0.152c-0.0977,-0.098 -0.1526,-0.23 -0.1526,-0.369c0,-0.138 0.0549,-0.27 0.1526,-0.368l1.7958,-1.796c-1.595,-1.964 -1.4787,-4.855 0.3496,-6.684l0.5292,-0.529c0.332,-0.332 0.7824,-0.518 1.252,-0.518c0.4697,0 0.92,0.186 1.2521,0.518l4.5667,4.567c0.332,0.332 0.5186,0.782 0.5186,1.252c0,0.47 -0.1866,0.92 -0.5186,1.252z" fill="currentColor"/></svg>