<svg viewBox="0 0 12.5 17.5" fill="none" xmlns="http://www.w3.org/2000/svg" x="0" y="0"><path id="Vector_3" d="M12.5,4.375c0,2.416 -2.7987,4.375 -6.25,4.375c-3.4512,0 -6.25,-1.959 -6.25,-4.375c0,-2.416 2.7988,-4.375 6.25,-4.375c3.4513,0 6.25,1.959 6.25,4.375zM12.3137,7.686c-1.3637,1.402 -3.5712,2.314 -6.0637,2.314c-2.4925,0 -4.7,-0.912 -6.0637,-2.314c-0.1234,0.341 -0.1864,0.701 -0.1863,1.064c0,2.416 2.7988,4.375 6.25,4.375c3.4513,0 6.25,-1.959 6.25,-4.375c-0.0017,-0.368 -0.0638,-0.723 -0.1863,-1.064zM12.3137,12.061c-1.3637,1.402 -3.5712,2.314 -6.0637,2.314c-2.4925,0 -4.7,-0.912 -6.0637,-2.314c-0.1234,0.341 -0.1864,0.701 -0.1863,1.064c0,2.416 2.7988,4.375 6.25,4.375c3.4513,0 6.25,-1.959 6.25,-4.375c-0.0017,-0.368 -0.0638,-0.723 -0.1863,-1.064z" fill="currentColor"/></svg>