<svg viewBox="0 0 80 16" fill="none" xmlns="http://www.w3.org/2000/svg" xmlns:xlink="http://www.w3.org/1999/xlink" x="0" y="0"><g id="Frame 48100324">
<g id="material-symbols:star-rounded">
<path id="Vector_10" d="M8,11.517l-2.766,1.666c-0.123,0.078 -0.25,0.111 -0.384,0.1c-0.133,-0.011 -0.25,-0.055 -0.35,-0.133c-0.1,-0.078 -0.178,-0.175 -0.233,-0.291c-0.056,-0.117 -0.067,-0.247 -0.033,-0.392l0.733,-3.15l-2.45,-2.117c-0.111,-0.1 -0.181,-0.214 -0.208,-0.342c-0.028,-0.128 -0.019,-0.253 0.025,-0.375c0.044,-0.121 0.11,-0.221 0.2,-0.3c0.089,-0.078 0.211,-0.128 0.366,-0.15l3.234,-0.283l1.25,-2.967c0.055,-0.133 0.141,-0.233 0.258,-0.3c0.117,-0.066 0.236,-0.1 0.358,-0.1c0.122,0 0.241,0.034 0.358,0.1c0.117,0.067 0.203,0.167 0.259,0.3l1.25,2.967l3.233,0.283c0.156,0.023 0.278,0.073 0.367,0.15c0.089,0.078 0.155,0.178 0.2,0.3c0.044,0.123 0.053,0.248 0.025,0.376c-0.027,0.128 -0.097,0.241 -0.208,0.341l-2.45,2.117l0.733,3.15c0.033,0.144 0.022,0.275 -0.033,0.392c-0.056,0.117 -0.134,0.214 -0.234,0.291c-0.1,0.077 -0.216,0.122 -0.35,0.133c-0.133,0.012 -0.261,-0.021 -0.383,-0.1z" fill="currentColor"/>
</g>
<g id="material-symbols:star-rounded_2">
<path id="Vector_11" d="M24,11.517l-2.766,1.666c-0.123,0.078 -0.25,0.111 -0.384,0.1c-0.133,-0.011 -0.25,-0.055 -0.35,-0.133c-0.1,-0.078 -0.178,-0.175 -0.233,-0.291c-0.056,-0.117 -0.067,-0.247 -0.033,-0.392l0.733,-3.15l-2.45,-2.117c-0.111,-0.1 -0.181,-0.214 -0.208,-0.342c-0.028,-0.128 -0.019,-0.253 0.025,-0.375c0.044,-0.121 0.11,-0.221 0.2,-0.3c0.089,-0.078 0.211,-0.128 0.366,-0.15l3.234,-0.283l1.25,-2.967c0.055,-0.133 0.141,-0.233 0.258,-0.3c0.117,-0.066 0.236,-0.1 0.358,-0.1c0.122,0 0.241,0.034 0.358,0.1c0.117,0.067 0.203,0.167 0.259,0.3l1.25,2.967l3.233,0.283c0.156,0.023 0.278,0.073 0.367,0.15c0.089,0.078 0.155,0.178 0.2,0.3c0.044,0.123 0.053,0.248 0.025,0.376c-0.027,0.128 -0.097,0.241 -0.208,0.341l-2.45,2.117l0.733,3.15c0.033,0.144 0.022,0.275 -0.033,0.392c-0.056,0.117 -0.134,0.214 -0.234,0.291c-0.1,0.077 -0.216,0.122 -0.35,0.133c-0.133,0.012 -0.261,-0.021 -0.383,-0.1z" fill="currentColor"/>
</g>
<g id="material-symbols:star-rounded_3">
<path id="Vector_12" d="M40,11.517l-2.766,1.666c-0.123,0.078 -0.25,0.111 -0.384,0.1c-0.133,-0.011 -0.25,-0.055 -0.35,-0.133c-0.1,-0.078 -0.178,-0.175 -0.233,-0.291c-0.056,-0.117 -0.067,-0.247 -0.033,-0.392l0.733,-3.15l-2.45,-2.117c-0.111,-0.1 -0.181,-0.214 -0.208,-0.342c-0.028,-0.128 -0.019,-0.253 0.025,-0.375c0.044,-0.121 0.11,-0.221 0.2,-0.3c0.089,-0.078 0.211,-0.128 0.366,-0.15l3.234,-0.283l1.25,-2.967c0.055,-0.133 0.141,-0.233 0.258,-0.3c0.117,-0.066 0.236,-0.1 0.358,-0.1c0.122,0 0.241,0.034 0.358,0.1c0.117,0.067 0.203,0.167 0.259,0.3l1.25,2.967l3.233,0.283c0.156,0.023 0.278,0.073 0.367,0.15c0.089,0.078 0.155,0.178 0.2,0.3c0.044,0.123 0.053,0.248 0.025,0.376c-0.027,0.128 -0.097,0.241 -0.208,0.341l-2.45,2.117l0.733,3.15c0.033,0.144 0.022,0.275 -0.033,0.392c-0.056,0.117 -0.134,0.214 -0.234,0.291c-0.1,0.077 -0.216,0.122 -0.35,0.133c-0.133,0.012 -0.261,-0.021 -0.383,-0.1z" fill="currentColor"/>
</g>
<g id="material-symbols:star-rounded_4">
<path id="Vector_13" d="M56,11.517l-2.766,1.666c-0.123,0.078 -0.25,0.111 -0.384,0.1c-0.133,-0.011 -0.25,-0.055 -0.35,-0.133c-0.1,-0.078 -0.178,-0.175 -0.233,-0.291c-0.056,-0.117 -0.067,-0.247 -0.033,-0.392l0.733,-3.15l-2.45,-2.117c-0.111,-0.1 -0.181,-0.214 -0.208,-0.342c-0.028,-0.128 -0.019,-0.253 0.025,-0.375c0.044,-0.121 0.11,-0.221 0.2,-0.3c0.089,-0.078 0.211,-0.128 0.366,-0.15l3.234,-0.283l1.25,-2.967c0.055,-0.133 0.141,-0.233 0.258,-0.3c0.117,-0.066 0.236,-0.1 0.358,-0.1c0.122,0 0.241,0.034 0.358,0.1c0.117,0.067 0.203,0.167 0.259,0.3l1.25,2.967l3.233,0.283c0.156,0.023 0.278,0.073 0.367,0.15c0.089,0.078 0.155,0.178 0.2,0.3c0.044,0.123 0.053,0.248 0.025,0.376c-0.027,0.128 -0.097,0.241 -0.208,0.341l-2.45,2.117l0.733,3.15c0.033,0.144 0.022,0.275 -0.033,0.392c-0.056,0.117 -0.134,0.214 -0.234,0.291c-0.1,0.077 -0.216,0.122 -0.35,0.133c-0.133,0.012 -0.261,-0.021 -0.383,-0.1z" fill="currentColor"/>
</g>
<g id="material-symbols:star-rounded_5">
<path id="Vector_14" d="M72,11.517l-2.766,1.666c-0.123,0.078 -0.25,0.111 -0.384,0.1c-0.133,-0.011 -0.25,-0.055 -0.35,-0.133c-0.1,-0.078 -0.178,-0.175 -0.233,-0.291c-0.056,-0.117 -0.067,-0.247 -0.033,-0.392l0.733,-3.15l-2.45,-2.117c-0.111,-0.1 -0.181,-0.214 -0.208,-0.342c-0.028,-0.128 -0.019,-0.253 0.025,-0.375c0.044,-0.121 0.11,-0.221 0.2,-0.3c0.089,-0.078 0.211,-0.128 0.366,-0.15l3.234,-0.283l1.25,-2.967c0.055,-0.133 0.141,-0.233 0.258,-0.3c0.117,-0.066 0.236,-0.1 0.358,-0.1c0.122,0 0.241,0.034 0.358,0.1c0.117,0.067 0.203,0.167 0.259,0.3l1.25,2.967l3.233,0.283c0.156,0.023 0.278,0.073 0.367,0.15c0.089,0.078 0.155,0.178 0.2,0.3c0.044,0.123 0.053,0.248 0.025,0.376c-0.027,0.128 -0.097,0.241 -0.208,0.341l-2.45,2.117l0.733,3.15c0.033,0.144 0.022,0.275 -0.033,0.392c-0.056,0.117 -0.134,0.214 -0.234,0.291c-0.1,0.077 -0.216,0.122 -0.35,0.133c-0.133,0.012 -0.261,-0.021 -0.383,-0.1z" fill="currentColor"/>
</g>
</g></svg>