<svg viewBox="0 0 17 20" fill="none" xmlns="http://www.w3.org/2000/svg" x="0" y="0"><path id="Vector_11" d="M4,0c0.265,0 0.52,0.105 0.707,0.293c0.188,0.187 0.293,0.442 0.293,0.707v2c0.796,0 1.559,0.316 2.121,0.879c0.563,0.562 0.879,1.325 0.879,2.121v6c0,0.796 -0.316,1.559 -0.879,2.121c-0.562,0.563 -1.325,0.879 -2.121,0.879v4c0,0.265 -0.105,0.52 -0.293,0.707c-0.187,0.188 -0.442,0.293 -0.707,0.293c-0.265,0 -0.52,-0.105 -0.707,-0.293c-0.188,-0.187 -0.293,-0.442 -0.293,-0.707v-4c-0.796,0 -1.559,-0.316 -2.121,-0.879c-0.563,-0.562 -0.879,-1.325 -0.879,-2.121v-6c0,-0.796 0.316,-1.559 0.879,-2.121c0.562,-0.563 1.325,-0.879 2.121,-0.879v-2c0,-0.265 0.105,-0.52 0.293,-0.707c0.187,-0.188 0.442,-0.293 0.707,-0.293zM13,0c0.245,0 0.481,0.09 0.664,0.253c0.183,0.162 0.3,0.387 0.329,0.63l0.007,0.117v4c0.765,0 1.502,0.292 2.058,0.817c0.557,0.525 0.892,1.243 0.937,2.007l0.005,0.176v6c0,0.765 -0.292,1.502 -0.817,2.058c-0.525,0.557 -1.243,0.892 -2.007,0.937l-0.176,0.005v2c0,0.255 -0.098,0.5 -0.273,0.685c-0.175,0.186 -0.414,0.297 -0.668,0.312c-0.255,0.015 -0.505,-0.068 -0.701,-0.231c-0.195,-0.164 -0.321,-0.396 -0.351,-0.649l-0.007,-0.117v-2c-0.765,0 -1.502,-0.292 -2.058,-0.817c-0.557,-0.525 -0.892,-1.243 -0.937,-2.007l-0.005,-0.176v-6c0,-0.765 0.292,-1.502 0.817,-2.058c0.525,-0.557 1.243,-0.892 2.007,-0.937l0.176,-0.005v-4c0,-0.265 0.105,-0.52 0.293,-0.707c0.187,-0.188 0.442,-0.293 0.707,-0.293z" fill="currentColor"/></svg>