<svg viewBox="0 0 15 21" fill="none" xmlns="http://www.w3.org/2000/svg" x="0" y="0"><path id="Vector_13" d="M15,5.25c0,2.899 -3.359,5.25 -7.5,5.25c-4.141,0 -7.5,-2.351 -7.5,-5.25c0,-2.899 3.359,-5.25 7.5,-5.25c4.141,0 7.5,2.351 7.5,5.25zM14.776,9.224c-1.636,1.681 -4.285,2.776 -7.276,2.776c-2.991,0 -5.64,-1.095 -7.276,-2.776c-0.149,0.409 -0.224,0.841 -0.224,1.276c0,2.899 3.359,5.25 7.5,5.25c4.141,0 7.5,-2.351 7.5,-5.25c-0.002,-0.442 -0.076,-0.867 -0.224,-1.276zM14.776,14.474c-1.636,1.681 -4.285,2.776 -7.276,2.776c-2.991,0 -5.64,-1.095 -7.276,-2.776c-0.149,0.409 -0.224,0.841 -0.224,1.276c0,2.899 3.359,5.25 7.5,5.25c4.141,0 7.5,-2.351 7.5,-5.25c-0.002,-0.442 -0.076,-0.867 -0.224,-1.276z" fill="currentColor"/></svg>