<svg viewBox="0 0 20 20" fill="none" xmlns="http://www.w3.org/2000/svg" x="0" y="0"><path id="Vector_5" d="M10,0c-1.978,0 -3.911,0.586 -5.556,1.685c-1.644,1.099 -2.926,2.661 -3.683,4.488c-0.757,1.827 -0.955,3.838 -0.569,5.778c0.386,1.94 1.338,3.722 2.737,5.12c1.398,1.399 3.18,2.351 5.12,2.737c1.94,0.386 3.951,0.188 5.778,-0.569c1.827,-0.757 3.389,-2.039 4.488,-3.683c1.099,-1.645 1.685,-3.578 1.685,-5.556c0,-2.652 -1.054,-5.196 -2.929,-7.071c-1.875,-1.875 -4.419,-2.929 -7.071,-2.929zM6.575,8.392l2.917,-4.167c0.06,-0.078 0.137,-0.141 0.225,-0.184c0.088,-0.044 0.185,-0.066 0.283,-0.066c0.098,0 0.195,0.022 0.283,0.066c0.088,0.043 0.165,0.106 0.225,0.184l2.917,4.167c0.092,0.126 0.132,0.281 0.114,0.436c-0.019,0.155 -0.095,0.296 -0.214,0.397l-2.917,2.5c-0.115,0.101 -0.263,0.156 -0.416,0.156c-0.154,0 -0.302,-0.055 -0.417,-0.156l-2.917,-2.5c-0.116,-0.103 -0.189,-0.246 -0.204,-0.4c-0.016,-0.155 0.027,-0.309 0.121,-0.433zM13.442,13.933l-2.892,2.5c-0.152,0.134 -0.348,0.208 -0.55,0.208c-0.202,0 -0.398,-0.074 -0.55,-0.208l-2.892,-2.5c-0.167,-0.146 -0.269,-0.352 -0.283,-0.573c-0.015,-0.221 0.058,-0.439 0.204,-0.606c0.146,-0.167 0.352,-0.269 0.573,-0.284c0.221,-0.014 0.439,0.059 0.606,0.205l2.342,2.05l2.342,-2.05c0.167,-0.146 0.385,-0.219 0.606,-0.205c0.221,0.015 0.427,0.117 0.573,0.284c0.146,0.167 0.219,0.385 0.204,0.606c-0.014,0.221 -0.116,0.427 -0.283,0.573z" fill="currentColor"/></svg>