<svg viewBox="0 0 12 12" fill="none" xmlns="http://www.w3.org/2000/svg" x="0" y="0"><path id="Vector_10" d="M1,12c-0.27,0 -0.5,-0.1 -0.7,-0.3c-0.2,-0.2 -0.3,-0.433 -0.3,-0.7v-10c0,-0.267 0.1,-0.5 0.3,-0.7c0.2,-0.2 0.43,-0.3 0.7,-0.3h4.15c0.14,0 0.26,0.048 0.36,0.145c0.09,0.096 0.14,0.215 0.14,0.358c0,0.142 -0.05,0.261 -0.14,0.355c-0.1,0.095 -0.22,0.142 -0.36,0.142h-4.15v10h10v-4.15c0,-0.142 0.05,-0.26 0.14,-0.356c0.1,-0.096 0.22,-0.144 0.36,-0.144c0.15,0 0.26,0.048 0.36,0.144c0.09,0.096 0.14,0.214 0.14,0.356v4.15c0,0.267 -0.1,0.5 -0.3,0.7c-0.2,0.2 -0.43,0.3 -0.7,0.3zM4.02,7.977c-0.09,-0.096 -0.14,-0.21 -0.14,-0.344c-0.01,-0.133 0.04,-0.25 0.14,-0.35l6.28,-6.283h-3.15c-0.14,0 -0.26,-0.048 -0.36,-0.145c-0.09,-0.096 -0.14,-0.215 -0.14,-0.358c0,-0.142 0.05,-0.261 0.14,-0.355c0.1,-0.095 0.22,-0.142 0.36,-0.142h4.35c0.14,0 0.26,0.048 0.36,0.144c0.09,0.096 0.14,0.214 0.14,0.356v4.35c0,0.142 -0.05,0.26 -0.14,0.356c-0.1,0.096 -0.22,0.144 -0.36,0.144c-0.15,0 -0.26,-0.048 -0.36,-0.144c-0.09,-0.096 -0.14,-0.214 -0.14,-0.356v-3.133l-6.28,6.283c-0.1,0.089 -0.21,0.133 -0.35,0.133c-0.14,0 -0.25,-0.052 -0.35,-0.156z" fill="currentColor"/></svg>