<svg viewBox="0 0 14.1667 16.6667" fill="none" xmlns="http://www.w3.org/2000/svg" x="0" y="0"><path id="Vector_2" d="M5,13.3334c-0.4583,0 -0.8506,-0.163 -1.1767,-0.489c-0.3261,-0.326 -0.4894,-0.719 -0.49,-1.178v-10c0,-0.458 0.1634,-0.85 0.49,-1.176c0.3267,-0.326 0.7189,-0.49 1.1767,-0.49h7.5c0.4583,0 0.8508,0.163 1.1775,0.49c0.3267,0.326 0.4897,0.719 0.4892,1.176v10c0,0.459 -0.1631,0.851 -0.4892,1.178c-0.3261,0.326 -0.7186,0.49 -1.1775,0.489zM1.6667,16.6664c-0.4584,0 -0.8506,-0.163 -1.1767,-0.489c-0.3261,-0.326 -0.4894,-0.718 -0.49,-1.177v-10.834c0,-0.236 0.08,-0.434 0.24,-0.593c0.16,-0.159 0.3578,-0.239 0.5933,-0.24c0.2356,-0.001 0.4336,0.079 0.5942,0.24c0.1606,0.161 0.2403,0.358 0.2392,0.593v10.834h8.3333c0.2361,0 0.4342,0.08 0.5942,0.24c0.16,0.16 0.2397,0.357 0.2391,0.593c-0.0005,0.236 -0.0805,0.434 -0.24,0.594c-0.1594,0.161 -0.3572,0.24 -0.5933,0.239z" fill="currentColor"/></svg>