<svg viewBox="0 0 21.9098 18" fill="none" xmlns="http://www.w3.org/2000/svg" xmlns:xlink="http://www.w3.org/1999/xlink" x="0" y="0"><g id="Group">
<g id="Vector">
<path d="M1.95,0l18,18z" fill="#CDCACC" fill-opacity="0.8"/>
<path d="M1.95,0l18,18" stroke="#CDCACC" stroke-opacity="0.8" stroke-width="2" stroke-linecap="round" stroke-linejoin="round"/>
</g>
<g id="Vector_2">
<path fill-rule="evenodd" clip-rule="evenodd" d="M4.35,3.23c-0.44,0.33 -0.84,0.678 -1.21,1.032c-1.22,1.19 -2.24,2.58 -3,4.11c-0.09,0.196 -0.14,0.41 -0.14,0.627c0,0.218 0.05,0.432 0.14,0.628c0.76,1.53 1.78,2.92 3,4.111c1.75,1.685 4.33,3.262 7.81,3.262c2.24,0 4.1,-0.65 5.61,-1.562l-3.94,-3.943c-0.58,0.385 -1.27,0.559 -1.96,0.491c-0.69,-0.068 -1.34,-0.374 -1.83,-0.864c-0.49,-0.491 -0.79,-1.137 -0.86,-1.827c-0.07,-0.691 0.1,-1.384 0.49,-1.961l-4.1,-4.105zM19.62,12.838c0.85,-0.973 1.57,-2.052 2.15,-3.21c0.09,-0.196 0.14,-0.41 0.14,-0.628c0,-0.217 -0.05,-0.431 -0.14,-0.627c-0.76,-1.53 -1.78,-2.92 -3,-4.111c-1.76,-1.685 -4.33,-3.262 -7.82,-3.262c-0.94,-0.003 -1.89,0.119 -2.8,0.363z" fill="#CDCACC" fill-opacity="0.8"/>
<path d="M7.84,7.417c-0.3,0.592 -0.43,1.26 -0.37,1.927c0.08,0.805 0.44,1.559 1.01,2.132c0.57,0.572 1.33,0.928 2.13,1.007c0.67,0.066 1.33,-0.064 1.93,-0.365l3.21,3.208c-1.34,0.701 -2.93,1.174 -4.79,1.174c-3.11,0 -5.47,-1.317 -7.14,-2.819l-0.33,-0.303c-1.04,-1.007 -1.92,-2.162 -2.61,-3.425l-0.29,-0.549c-0.06,-0.126 -0.09,-0.264 -0.09,-0.404c0,-0.14 0.03,-0.279 0.09,-0.405c0.74,-1.479 1.72,-2.822 2.9,-3.973c0.26,-0.247 0.53,-0.491 0.82,-0.727zM10.95,1.5h0.01c3.31,0 5.77,1.498 7.46,3.12v0.001c1.18,1.15 2.16,2.491 2.9,3.969v0.001c0.06,0.127 0.09,0.268 0.09,0.41c0,0.142 -0.03,0.282 -0.09,0.409c-0.48,0.958 -1.06,1.858 -1.73,2.688l-10.44,-10.443c0.59,-0.104 1.2,-0.157 1.8,-0.155z" stroke="#CDCACC" stroke-opacity="0.8"/>
</g>
</g></svg>