<svg viewBox="0 0 24 24" fill="none" xmlns="http://www.w3.org/2000/svg" x="0" y="0"><path id="Vector_15" d="M12,0c-2.37,0 -4.69,0.704 -6.67,2.022c-1.97,1.319 -3.51,3.193 -4.42,5.386c-0.9,2.193 -1.14,4.605 -0.68,6.933c0.46,2.328 1.61,4.466 3.28,6.144c1.68,1.679 3.82,2.821 6.15,3.284c2.33,0.463 4.74,0.226 6.93,-0.682c2.19,-0.909 4.07,-2.447 5.39,-4.42c1.32,-1.974 2.02,-4.294 2.02,-6.667c0,-3.183 -1.26,-6.235 -3.51,-8.485c-2.26,-2.251 -5.31,-3.515 -8.49,-3.515zM7.89,10.07l3.5,-5c0.07,-0.093 0.16,-0.169 0.27,-0.221c0.11,-0.052 0.22,-0.079 0.34,-0.079c0.12,0 0.23,0.027 0.34,0.079c0.11,0.052 0.2,0.128 0.27,0.221l3.5,5c0.11,0.151 0.16,0.338 0.14,0.524c-0.03,0.185 -0.12,0.355 -0.26,0.476l-3.5,3c-0.14,0.121 -0.32,0.188 -0.5,0.188c-0.18,0 -0.36,-0.067 -0.5,-0.188l-3.5,-3c-0.14,-0.123 -0.23,-0.295 -0.25,-0.48c-0.01,-0.186 0.04,-0.371 0.15,-0.52zM16.13,16.72l-3.47,3c-0.18,0.16 -0.42,0.249 -0.66,0.249c-0.24,0 -0.48,-0.089 -0.66,-0.249l-3.47,-3c-0.2,-0.175 -0.32,-0.422 -0.34,-0.688c-0.02,-0.265 0.07,-0.527 0.25,-0.727c0.17,-0.2 0.42,-0.323 0.68,-0.341c0.27,-0.017 0.53,0.071 0.73,0.246l2.81,2.46l2.81,-2.46c0.2,-0.175 0.46,-0.263 0.73,-0.246c0.26,0.018 0.51,0.141 0.69,0.341c0.17,0.2 0.26,0.462 0.24,0.727c-0.02,0.266 -0.14,0.513 -0.34,0.688z" fill="currentColor"/></svg>