<svg viewBox="0 0 18 20" fill="none" xmlns="http://www.w3.org/2000/svg" x="0" y="0"><path id="Vector" d="M2.6,0c-0.6896,0 -1.3509,0.274 -1.8385,0.762c-0.4876,0.487 -0.7615,1.148 -0.7615,1.838v4.8c0,0.341 0.0673,0.68 0.1979,0.995c0.1307,0.315 0.3222,0.602 0.5636,0.843c0.4876,0.488 1.1489,0.762 1.8385,0.762h2.8c0.6896,0 1.3509,-0.274 1.8385,-0.762c0.4876,-0.487 0.7615,-1.148 0.7615,-1.838v-4.8c0,-0.69 -0.2739,-1.351 -0.7615,-1.838c-0.4876,-0.488 -1.1489,-0.762 -1.8385,-0.762zM2.6,12c-0.6896,0 -1.3509,0.274 -1.8385,0.762c-0.4876,0.487 -0.7615,1.148 -0.7615,1.838v2.8c0,0.69 0.2739,1.351 0.7615,1.838c0.4876,0.488 1.1489,0.762 1.8385,0.762h2.8c0.6896,0 1.3509,-0.274 1.8385,-0.762c0.4876,-0.487 0.7615,-1.148 0.7615,-1.838v-2.8c0,-0.69 -0.2739,-1.351 -0.7615,-1.838c-0.4876,-0.488 -1.1489,-0.762 -1.8385,-0.762zM12.6,0c-0.6896,0 -1.3509,0.274 -1.8385,0.762c-0.4876,0.487 -0.7615,1.148 -0.7615,1.838v2.8c0,0.69 0.2739,1.351 0.7615,1.838c0.4876,0.488 1.1489,0.762 1.8385,0.762h2.8c0.3414,0 0.6795,-0.067 0.995,-0.198c0.3154,-0.131 0.602,-0.322 0.8435,-0.564c0.2414,-0.241 0.4329,-0.528 0.5636,-0.843c0.1306,-0.315 0.1979,-0.654 0.1979,-0.995v-2.8c0,-0.341 -0.0673,-0.68 -0.1979,-0.995c-0.1307,-0.315 -0.3222,-0.602 -0.5636,-0.843c-0.2415,-0.242 -0.5281,-0.433 -0.8435,-0.564c-0.3155,-0.131 -0.6536,-0.198 -0.995,-0.198zM12.6,10c-0.6896,0 -1.3509,0.274 -1.8385,0.762c-0.4876,0.487 -0.7615,1.148 -0.7615,1.838v4.8c0,0.69 0.2739,1.351 0.7615,1.838c0.4876,0.488 1.1489,0.762 1.8385,0.762h2.8c0.3414,0 0.6795,-0.067 0.995,-0.198c0.3154,-0.131 0.602,-0.322 0.8435,-0.564c0.2414,-0.241 0.4329,-0.528 0.5636,-0.843c0.1306,-0.315 0.1979,-0.654 0.1979,-0.995v-4.8c0,-0.341 -0.0673,-0.68 -0.1979,-0.995c-0.1307,-0.315 -0.3222,-0.602 -0.5636,-0.843c-0.2415,-0.242 -0.5281,-0.433 -0.8435,-0.564c-0.3155,-0.131 -0.6536,-0.198 -0.995,-0.198z" fill="currentColor"/></svg>